# Blender v2.91.0 OBJ File: 'ROAD_asfalt_apg.blend'
# www.blender.org
mtllib road1.mtl
o road_3.5X9.0_1__Plane.008
v -0.962413 -0.011412 0.963682
v 0.962413 -0.011412 0.963682
v -0.962413 -0.011412 -0.963681
v 0.962413 -0.011412 -0.963681
v -0.962413 0.011412 0.963682
v 0.962413 0.011412 0.963682
v -0.962413 0.011412 -0.963681
v 0.962413 0.011412 -0.963681
vt 0 25
vt 25 0
vt 50 25
vt 25 50
vt 0 0
vt 0 0
vt 0 0
vt 0 0
vn 0.0000 1.0000 0.0000
vn -1.0000 0.0000 0.0000
vn 0.0000 0.0000 -1.0000
vn 0.0000 0.0000 1.0000
vn 1.0000 0.0000 0.0000
usemtl road_3.5X9.0_1_
s off
f 5/1/1 6/2/1 8/3/1 7/4/1
f 3/5/2 1/6/2 5/1/2 7/4/2
f 4/7/3 3/5/3 7/4/3 8/3/3
f 1/6/4 2/8/4 6/2/4 5/1/4
f 2/8/5 4/7/5 8/3/5 6/2/5
